<svg xmlns="http://www.w3.org/2000/svg" width="1200" height="630" viewBox="0 0 1200 630">
  <defs>
    <radialGradient id="glow" cx="50%" cy="50%" r="50%">
      <stop offset="0%" stop-color="#BFFF00" stop-opacity="0.12"/>
      <stop offset="100%" stop-color="#BFFF00" stop-opacity="0"/>
    </radialGradient>
  </defs>

  <!-- Background -->
  <rect width="1200" height="630" fill="#0A0A0A"/>

  <!-- Subtle grid pattern -->
  <g opacity="0.04" stroke="#BFFF00" stroke-width="0.5">
    <line x1="0" y1="0" x2="0" y2="630" transform="translate(60,0)" />
    <line x1="0" y1="0" x2="0" y2="630" transform="translate(120,0)" />
    <line x1="0" y1="0" x2="0" y2="630" transform="translate(180,0)" />
    <line x1="0" y1="0" x2="0" y2="630" transform="translate(240,0)" />
    <line x1="0" y1="0" x2="0" y2="630" transform="translate(300,0)" />
    <line x1="0" y1="0" x2="0" y2="630" transform="translate(360,0)" />
    <line x1="0" y1="0" x2="0" y2="630" transform="translate(420,0)" />
    <line x1="0" y1="0" x2="0" y2="630" transform="translate(480,0)" />
    <line x1="0" y1="0" x2="0" y2="630" transform="translate(540,0)" />
    <line x1="0" y1="0" x2="0" y2="630" transform="translate(600,0)" />
    <line x1="0" y1="0" x2="0" y2="630" transform="translate(660,0)" />
    <line x1="0" y1="0" x2="0" y2="630" transform="translate(720,0)" />
    <line x1="0" y1="0" x2="0" y2="630" transform="translate(780,0)" />
    <line x1="0" y1="0" x2="0" y2="630" transform="translate(840,0)" />
    <line x1="0" y1="0" x2="0" y2="630" transform="translate(900,0)" />
    <line x1="0" y1="0" x2="0" y2="630" transform="translate(960,0)" />
    <line x1="0" y1="0" x2="0" y2="630" transform="translate(1020,0)" />
    <line x1="0" y1="0" x2="0" y2="630" transform="translate(1080,0)" />
    <line x1="0" y1="0" x2="0" y2="630" transform="translate(1140,0)" />
    <line x1="0" y1="0" x2="1200" y2="0" transform="translate(0,60)" />
    <line x1="0" y1="0" x2="1200" y2="0" transform="translate(0,120)" />
    <line x1="0" y1="0" x2="1200" y2="0" transform="translate(0,180)" />
    <line x1="0" y1="0" x2="1200" y2="0" transform="translate(0,240)" />
    <line x1="0" y1="0" x2="1200" y2="0" transform="translate(0,300)" />
    <line x1="0" y1="0" x2="1200" y2="0" transform="translate(0,360)" />
    <line x1="0" y1="0" x2="1200" y2="0" transform="translate(0,420)" />
    <line x1="0" y1="0" x2="1200" y2="0" transform="translate(0,480)" />
    <line x1="0" y1="0" x2="1200" y2="0" transform="translate(0,540)" />
  </g>

  <!-- Center glow -->
  <ellipse cx="600" cy="280" rx="400" ry="250" fill="url(#glow)"/>

  <!-- Brand logo: exo. -->
  <text x="600" y="270" text-anchor="middle" font-family="'Anybody', 'Arial Black', sans-serif" font-weight="900" font-size="120" fill="#FFFFFF" letter-spacing="-2">
    exo<tspan fill="#BFFF00">.</tspan>
  </text>

  <!-- Tagline -->
  <text x="600" y="340" text-anchor="middle" font-family="'DM Sans', 'Helvetica', sans-serif" font-weight="400" font-size="28" fill="rgba(255,255,255,0.5)" letter-spacing="6">
    YOUR AGENTIC WALLET
  </text>

  <!-- Accent line -->
  <rect x="525" y="370" width="150" height="2" rx="1" fill="#BFFF00" opacity="0.4"/>

  <!-- Bottom badge -->
  <g transform="translate(600, 540)">
    <rect x="-80" y="-16" width="160" height="32" rx="16" fill="rgba(191,255,0,0.08)" stroke="rgba(191,255,0,0.15)" stroke-width="1"/>
    <text x="0" y="5" text-anchor="middle" font-family="'Space Mono', 'Courier New', monospace" font-weight="700" font-size="11" fill="rgba(191,255,0,0.6)" letter-spacing="2">
      ON BASE
    </text>
  </g>

  <!-- Corner dots (brand mark) -->
  <g transform="translate(56, 56)">
    <rect width="6" height="6" rx="1.5" fill="#BFFF00" opacity="0.3"/>
    <rect x="10" width="6" height="6" rx="1.5" fill="#BFFF00" opacity="0.3"/>
    <rect y="10" width="6" height="6" rx="1.5" fill="#BFFF00" opacity="0.3"/>
    <rect x="10" y="10" width="6" height="6" rx="1.5" fill="#BFFF00" opacity="0.15"/>
  </g>

  <g transform="translate(1128, 56)">
    <rect width="6" height="6" rx="1.5" fill="#BFFF00" opacity="0.3"/>
    <rect x="10" width="6" height="6" rx="1.5" fill="#BFFF00" opacity="0.3"/>
    <rect y="10" width="6" height="6" rx="1.5" fill="#BFFF00" opacity="0.15"/>
    <rect x="10" y="10" width="6" height="6" rx="1.5" fill="#BFFF00" opacity="0.3"/>
  </g>
</svg>
